<?xml version="1.0" encoding="UTF-8" standalone="no"?>
<svg
   xmlns:dc="http://purl.org/dc/elements/1.1/"
   xmlns:cc="http://creativecommons.org/ns#"
   xmlns:rdf="http://www.w3.org/1999/02/22-rdf-syntax-ns#"
   xmlns:svg="http://www.w3.org/2000/svg"
   xmlns="http://www.w3.org/2000/svg"
   version="1.1"
   id="svg2"
   viewBox="0 0 744.09448819 1052.3622047"
   height="297mm"
   width="210mm">
  <defs
     id="defs4" />
  <metadata
     id="metadata7">
    <rdf:RDF>
      <cc:Work
         rdf:about="">
        <dc:format>image/svg+xml</dc:format>
        <dc:type
           rdf:resource="http://purl.org/dc/dcmitype/StillImage" />
        <dc:title></dc:title>
      </cc:Work>
    </rdf:RDF>
  </metadata>
  <g
     id="layer1">
    <path
       id="path3336"
       d="M367.4,427.6c-30.9,0-56,25.1-56,56s25.1,56,56,56s56-25.1,56-56C423.4,452.8,398.3,427.6,367.4,427.6z
                           M367.4,436.7c25.3,0,45.9,20.1,46.9,45.1h-10.7l-18.2-22.5l-26.2,31.2L340,469.6l-10.8,10.8h-8.7
                          C322.3,456,342.7,436.7,367.4,436.7z M367.4,530.6c-24.5,0-44.7-18.9-46.8-43h11.6l7.5-7.5l19.6,21.5l25.8-30.8l14.9,18.4h13.9
                          C411.3,512.4,391.5,530.6,367.4,530.6z"
       style="fill: rgb(58, 58, 89);" />
  </g>
</svg>
